Coordinates
version=1
nRows=11
nColumns=46
inDegrees=yes

Units are S.I. units (second, meters, Newtons, ...)
Angles are in degrees.

endheader
time	pelvis_tilt	pelvis_list	pelvis_rotation	pelvis_tx	pelvis_ty	pelvis_tz	bb_angle	bb_tx	bb_ty	bb_tz	hip_flexion_r	hip_adduction_r	hip_rotation_r	knee_angle_r	knee_angle_r_beta	ankle_angle_r	subtalar_angle_r	mtp_angle_r	crank_angle_r	hip_flexion_l	hip_adduction_l	hip_rotation_l	knee_angle_l	knee_angle_l_beta	ankle_angle_l	subtalar_angle_l	mtp_angle_l	crank_angle_l	lumbar_extension	lumbar_bending	lumbar_rotation	arm_flex_r	arm_add_r	arm_rot_r	elbow_flex_r	pro_sup_r	wrist_flex_r	wrist_dev_r	arm_flex_l	arm_add_l	arm_rot_l	elbow_flex_l	pro_sup_l	wrist_flex_l	wrist_dev_l
      7.50000000	    -12.52587660	      6.51141507	      1.62304617	      0.17759138	      1.13211961	     -0.20968063	      0.00000000	      0.50000000	      0.00000000	      0.25000000	     41.59390193	     -6.43604187	     10.47485809	     31.07894100	      0.54242985	     -0.64671346	    -14.03305083	      0.00000000	      0.00000000	     66.53684153	      5.53399707	      6.64159670	    101.92169718	      1.77886919	     -2.38003901	     -8.93826396	      0.00000000	      0.00000000	    -64.78599193	     -6.31162322	    -14.25079382	     86.66281567	    -15.89408094	     45.25847197	     56.69405824	     46.27656946	      0.00000000	      0.00000000	     87.20983597	    -29.07341630	     35.59656586	     65.71406018	     49.04477626	      0.00000000	      0.00000000
      7.50500000	    -13.03121419	      7.01214392	      2.43315065	      0.17769336	      1.13192742	     -0.20847040	      0.00000000	      0.50000000	      0.00000000	      0.25000000	     40.47924489	     -7.47585462	      9.83143685	     28.99418078	      0.50604392	     -1.79433493	    -13.45683711	      0.00000000	      0.00000000	     68.30146315	      6.22844623	      6.43545558	    103.07817856	      1.79905360	     -1.51993427	     -8.76047495	      0.00000000	      0.00000000	    -64.45393129	     -6.59324679	    -15.34912165	     86.32035873	    -15.91058722	     45.22721725	     56.51557922	     46.26205540	      0.00000000	      0.00000000	     87.42589251	    -28.79172543	     35.75134154	     65.77663063	     49.05751490	      0.00000000	      0.00000000
      7.51000000	    -13.20150760	      7.31425969	      3.42117104	      0.17763091	      1.13222421	     -0.20761868	      0.00000000	      0.50000000	      0.00000000	      0.25000000	     38.92726771	     -8.46343181	      8.74364596	     26.89563118	      0.46941732	     -3.25331642	    -13.27245980	      0.00000000	      0.00000000	     69.75326044	      6.96974196	      6.51839466	    104.18416652	      1.81835673	     -0.60641744	     -7.87074279	      0.00000000	      0.00000000	    -64.41912224	     -6.41757485	    -16.56682333	     85.96949607	    -15.17035209	     44.76279445	     55.99131154	     46.18399901	      0.00000000	      0.00000000	     87.63950956	    -29.04154251	     36.11223343	     65.68575522	     49.04068648	      0.00000000	      0.00000000
      7.51500000	    -13.77601885	      7.71857109	      4.01678719	      0.17784411	      1.13180814	     -0.20644683	      0.00000000	      0.50000000	      0.00000000	      0.25000000	     38.03887573	     -9.28238347	      7.95866630	     25.18001128	      0.43947410	     -4.19150643	    -12.40923911	      0.00000000	      0.00000000	     71.52881568	      7.45485906	      6.22855385	    105.15444460	      1.83529128	      0.26683823	     -8.11969221	      0.00000000	      0.00000000	    -64.01068305	     -6.82242063	    -17.48860817	     85.63278054	    -15.09928895	     44.72150148	     55.73702753	     46.15559471	      0.00000000	      0.00000000	     87.83440296	    -28.80232300	     36.24129092	     65.87322188	     49.06939467	      0.00000000	      0.00000000
      7.52000000	    -14.30940602	      8.08236196	      4.73975314	      0.17773441	      1.13169913	     -0.20560838	      0.00000000	      0.50000000	      0.00000000	      0.25000000	     37.00693867	    -10.16013869	      7.02268971	     23.30170870	      0.40669154	     -5.32588764	    -11.40307971	      0.00000000	      0.00000000	     73.41127356	      7.78688997	      5.92961012	    106.01587583	      1.85032609	      0.72695022	     -7.49551328	      0.00000000	      0.00000000	    -63.65238311	     -7.03546309	    -18.42344865	     85.22820025	    -14.88786427	     44.65234465	     55.42999953	     46.12095431	      0.00000000	      0.00000000	     87.92478500	    -28.67041345	     36.40402252	     65.99527717	     49.08794065	      0.00000000	      0.00000000
      7.52500000	    -14.80776183	      8.36801795	      5.47734672	      0.17780857	      1.13175529	     -0.20476270	      0.00000000	      0.50000000	      0.00000000	      0.25000000	     35.97323975	    -10.97014148	      5.92398435	     21.60759927	      0.37712375	     -6.30422038	    -10.36450751	      0.00000000	      0.00000000	     75.13202215	      8.17298502	      5.72807446	    106.70844068	      1.86241363	      1.44667734	     -6.85982389	      0.00000000	      0.00000000	    -63.29947424	     -7.20602361	    -19.30484257	     84.77326283	    -14.57309709	     44.48077581	     54.97423847	     46.05877132	      0.00000000	      0.00000000	     87.98319033	    -28.60927566	     36.59678255	     66.09770605	     49.09975246	      0.00000000	      0.00000000
      7.53000000	    -15.31673127	      8.56973502	      6.01403957	      0.17791555	      1.13166779	     -0.20346315	      0.00000000	      0.50000000	      0.00000000	      0.25000000	     35.12669806	    -11.53384131	      4.85900846	     20.20916361	      0.35271644	     -7.12809896	     -9.39501270	      0.00000000	      0.00000000	     76.84361371	      8.18959477	      5.46710288	    107.27699405	      1.87233676	      1.98910302	     -6.40894442	      0.00000000	      0.00000000	    -62.99400345	     -7.53793990	    -20.06675786	     84.49912515	    -14.36761265	     44.39890725	     54.67546223	     46.02046339	      0.00000000	      0.00000000	     88.17335858	    -28.46903537	     36.69867773	     66.23093019	     49.11283635	      0.00000000	      0.00000000
      7.53500000	    -15.79127878	      8.70685128	      6.55038767	      0.17790749	      1.13173049	     -0.20255647	      0.00000000	      0.50000000	      0.00000000	      0.25000000	     34.28783594	    -12.03241621	      3.80651093	     18.92488709	      0.33030159	     -7.96462355	     -8.38960698	      0.00000000	      0.00000000	     78.48751297	      8.23079609	      5.29006230	    107.68395897	      1.87943964	      2.37046212	     -5.70866917	      0.00000000	      0.00000000	    -62.70241067	     -7.74152305	    -20.68500227	     84.17880192	    -14.10892159	     44.32839315	     54.33730655	     45.97879213	      0.00000000	      0.00000000	     88.24106502	    -28.37743263	     36.80732965	     66.34981243	     49.12310361	      0.00000000	      0.00000000
      7.54000000	    -16.24999694	      8.77521614	      7.01420126	      0.17804176	      1.13181426	     -0.20177900	      0.00000000	      0.50000000	      0.00000000	      0.25000000	     33.53588589	    -12.41753762	      2.74038313	     17.85768769	      0.31167545	     -8.68300407	     -7.41342447	      0.00000000	      0.00000000	     80.04384325	      8.20985714	      5.16695720	    107.96399736	      1.88432723	      2.82877587	     -5.01626237	      0.00000000	      0.00000000	    -62.36095982	     -7.93592073	    -21.18550985	     83.88341329	    -13.84361004	     44.20927443	     53.92481255	     45.92370556	      0.00000000	      0.00000000	     88.27329889	    -28.34301046	     36.87918427	     66.48459636	     49.12816147	      0.00000000	      0.00000000
      7.54500000	    -16.67606613	      8.84773701	      7.30166437	      0.17800132	      1.13201508	     -0.20110226	      0.00000000	      0.50000000	      0.00000000	      0.25000000	     32.98460917	    -12.69252638	      1.82785550	     17.15151684	      0.29935044	     -9.33229775	     -6.63906604	      0.00000000	      0.00000000	     81.49231332	      7.97656363	      4.90930709	    108.05823044	      1.88597191	      3.20603793	     -4.45452609	      0.00000000	      0.00000000	    -62.08922613	     -8.24685096	    -21.56965826	     83.71865621	    -13.71217545	     44.07399746	     53.53445229	     45.86639444	      0.00000000	      0.00000000	     88.34806244	    -28.25838262	     36.95268575	     66.65777342	     49.14107374	      0.00000000	      0.00000000
      7.55000000	    -17.00630491	      8.91518470	      7.58431579	      0.17809044	      1.13240760	     -0.20065712	      0.00000000	      0.50000000	      0.00000000	      0.25000000	     32.46436141	    -12.97272784	      0.80722735	     16.77050242	      0.29270048	     -9.59721352	     -5.69845037	      0.00000000	      0.00000000	     82.70090942	      7.72953109	      4.66054484	    108.00589268	      1.88505844	      3.88345712	     -3.53320001	      0.00000000	      0.00000000	    -61.83712066	     -8.42019408	    -22.28226830	     83.60309111	    -12.16160848	     42.98816963	     51.73038262	     45.72334694	      0.00000000	      0.00000000	     88.26818253	    -28.83769534	     37.13445161	     67.17944690	     49.00604068	      0.00000000	      0.00000000
